<svg width="25" height="26" viewBox="0 0 25 26" fill="none" xmlns="http://www.w3.org/2000/svg">
<path d="M24.8518 23.2376L22.673 6.98752C22.673 6.947 22.6286 6.86567 22.5396 6.86567H17.8708V5.97191C17.8708 2.39682 15.692 0 12.4018 0C9.11145 0 6.93288 2.39682 6.93288 5.97191V6.86567H2.48649C2.44214 6.86567 2.35313 6.90619 2.35313 6.98752L0.17432 23.2376C0.0409527 23.9282 0.307688 24.6597 0.796798 25.1876C1.33027 25.7158 2.08609 26 2.84229 26H22.1841C22.9399 26 23.7404 25.7155 24.2296 25.1876C24.8071 24.6188 24.9851 23.9283 24.8518 23.2376ZM15.959 6.86565H8.88902V5.97189C8.88902 4.02195 9.77822 1.74701 12.4015 1.74701C15.0248 1.74701 15.914 4.02195 15.914 5.97189L15.9143 6.86565H15.959Z" fill="white" fill-opacity="0.55"/>
</svg>
