<svg width="21" height="22" viewBox="0 0 21 22" fill="none" xmlns="http://www.w3.org/2000/svg">
<path fill-rule="evenodd" clip-rule="evenodd" d="M5.34005 5.08957C8.28617 5.08957 10.6801 8.26981 10.6801 12.1196C10.6801 15.9693 8.28638 19.1496 5.34005 19.1496C2.39372 19.1496 0 15.9693 0 12.1196C0 8.26981 2.39372 5.08957 5.34005 5.08957ZM5.52418 18.4801C3.31459 14.6305 8.28617 11.1153 5.52418 5.75909C6.62898 13.4586 2.2098 14.2953 5.52418 18.4801Z" fill="#B87651"/>
<path fill-rule="evenodd" clip-rule="evenodd" d="M11.048 9.44186C16.7559 8.60496 23.7533 16.1371 19.8863 19.9867C16.9402 22.8322 11.6002 20.3214 9.39056 17.8107C10.6795 16.3043 11.416 14.2957 11.416 12.6221C15.4669 16.1371 14.5463 18.9826 19.5178 19.4849C15.6511 18.648 15.4669 14.2963 11.416 11.7854C11.416 10.9485 11.2319 10.1116 11.0478 9.44206L11.048 9.44186Z" fill="#B87651"/>
<path fill-rule="evenodd" clip-rule="evenodd" d="M17.6767 0.570485C19.3339 1.74215 19.1498 4.58763 17.1243 6.5962C15.283 8.77216 12.3369 9.44168 10.6799 8.27002C9.02294 7.09835 9.20686 4.25287 11.2323 2.2443C13.0736 0.0683423 16.0198 -0.601182 17.6767 0.570485ZM11.048 8.10283C11.7845 5.08997 16.2037 5.25735 17.4924 0.90563C14.3621 5.5923 11.4158 4.25325 11.048 8.10283Z" fill="#B87651"/>
</svg>
