<svg width="15" height="19" viewBox="0 0 15 19" fill="none" xmlns="http://www.w3.org/2000/svg">
<path d="M7.5 0C7.5 0 0 8.38194 0 12.0128C0 15.6437 3.36062 18.5926 7.5 18.5926C11.6394 18.5926 15 15.6407 15 12.0128C15 8.38493 7.5 0 7.5 0ZM7.5 16.9382C7.27338 16.932 7.09348 16.7691 7.09348 16.5701C7.09348 16.3713 7.27338 16.2084 7.5 16.2022C10.4931 16.2022 12.9322 14.0623 12.9322 11.4365V11.4364C12.9393 11.2377 13.1251 11.0797 13.3517 11.0797C13.5784 11.0797 13.7642 11.2377 13.7713 11.4364C13.7886 14.4758 10.9644 16.9381 7.50008 16.9381L7.5 16.9382Z" fill="#B87651"/>
</svg>
