<svg width="30" height="25" viewBox="0 0 30 25" fill="none" xmlns="http://www.w3.org/2000/svg">
<path d="M29.3886 5.08187C28.4331 2.0424 25.7768 0.000207534 22.7787 0.000207534C20.8686 0.000207534 18.942 0.74392 17.492 2.04084C16.2201 3.17848 15.4235 5.08908 15.3803 5.195C15.3675 5.23061 15.355 5.26284 15.3432 5.29123C15.3284 5.25698 15.3123 5.21664 15.2957 5.16999C15.2624 5.08931 14.4656 3.17827 13.1936 2.04064C11.7436 0.743885 9.81675 0 7.90712 0C4.90837 0 2.25272 2.04219 1.29779 5.08166C-0.391583 10.4592 3.41043 17.0747 11.4676 22.7771C12.5583 23.5492 14.4671 24.7374 14.5481 24.7882C14.7672 24.9247 15.0497 25 15.3426 25C15.6356 25 15.9178 24.9247 16.1381 24.7884C16.2189 24.7377 18.1272 23.5493 19.2181 22.7768C27.2754 17.075 31.0772 10.4594 29.3886 5.08187Z" fill="white" fill-opacity="0.55"/>
</svg>
