<svg width="30" height="26" viewBox="0 0 30 26" fill="none" xmlns="http://www.w3.org/2000/svg">
<path d="M2.99093 12.7302L2.52225 13.1407C1.92187 13.6665 0.975227 13.6414 0.408194 13.0847C-0.15884 12.528 -0.131843 11.6502 0.468782 11.1244L11.8748 1.13574C13.6039 -0.37858 16.3067 -0.37858 18.0358 1.13574L29.4418 11.1244C30.0425 11.6503 30.0695 12.528 29.5024 13.0847C28.9353 13.6414 27.9887 13.6665 27.3884 13.1407L26.9197 12.7302V23.2264C26.9197 24.7582 25.5805 26 23.9286 26H18.6942C18.2814 26 17.9466 25.6896 17.9466 25.3066V17.6797C17.9466 16.148 16.6074 14.9061 14.9555 14.9061C13.3036 14.9061 11.9644 16.148 11.9644 17.6797V25.3066C11.9644 25.6896 11.6297 26 11.2168 26H5.98246C4.33058 26 2.99135 24.7582 2.99135 23.2264L2.99093 12.7302Z" fill="#B87651"/>
</svg>
