<svg width="17" height="16" viewBox="0 0 17 16" fill="none" xmlns="http://www.w3.org/2000/svg">
<path d="M2.10001 0H4.89999C6.05979 0 7 1.15981 7 2.10001V4.89999C7 6.05979 6.05979 7 4.89999 7H2.10001C0.940205 7 0 5.84019 0 4.89999V2.10001C0 0.940205 0.940205 0 2.10001 0Z" fill="#5C5C5E"/>
<path d="M12.1 0H14.9C16.0598 0 17 1.15981 17 2.10001V4.89999C17 6.05979 16.0598 7 14.9 7H12.1C10.9402 7 10 5.84019 10 4.89999V2.10001C10 0.940205 10.9402 0 12.1 0Z" fill="#5C5C5E"/>
<path d="M12.1 9H14.9C16.0598 9 17 10.1598 17 11.1V13.9C17 15.0598 16.0598 16 14.9 16H12.1C10.9402 16 10 14.8402 10 13.9V11.1C10 9.94021 10.9402 9 12.1 9Z" fill="#5C5C5E"/>
<path d="M2.10001 9H4.89999C6.05979 9 7 10.1598 7 11.1V13.9C7 15.0598 6.05979 16 4.89999 16H2.10001C0.940205 16 0 14.8402 0 13.9V11.1C0 9.94021 0.940205 9 2.10001 9Z" fill="#5C5C5E"/>
</svg>
