<svg width="29" height="26" viewBox="0 0 29 26" fill="none" xmlns="http://www.w3.org/2000/svg">
<path d="M13.0524 25.266C14.601 25.266 15.8838 24.2842 16.1051 23H10C10.221 24.2839 11.5041 25.266 13.0524 25.266H13.0524Z" fill="white" fill-opacity="0.55"/>
<path d="M28.5145 6.49988C28.5145 9.5374 25.9749 12 22.8419 12C19.709 12 17.1691 9.53746 17.1691 6.49988C17.1691 3.46235 19.709 1 22.8419 1C25.9749 1 28.5145 3.46229 28.5145 6.49988Z" fill="#B87651"/>
<path d="M14.3902 2.03915V0.944114C14.3902 0.415424 13.9036 0 13.2842 0C12.6648 0 12.1781 0.415424 12.1781 0.944114V2.03915C7.44411 2.53017 3.7722 5.96653 3.7722 10.1208V17.5604C3.7722 18.5422 3.28552 19.373 2.09093 19.373C1.33886 19.373 0.719514 19.8261 0.675035 20.3927C0.630904 20.7325 0.763605 21.0347 1.02901 21.2612C1.29441 21.4878 1.64838 21.639 2.00233 21.639H24.5656C24.9638 21.639 25.2736 21.5257 25.539 21.2612C25.8044 21.0347 25.8929 20.6949 25.8929 20.3927C25.8488 19.8264 25.185 19.373 24.477 19.373C23.3268 19.373 22.7958 18.5798 22.7958 17.5604V13.8216C18.416 13.3306 15.0538 10.1585 15.0538 6.30648C15.0538 4.87136 15.5405 3.54973 16.3366 2.41673C15.7173 2.22812 15.0538 2.11458 14.3899 2.03924L14.3902 2.03915Z" fill="white" fill-opacity="0.55"/>
</svg>
