<svg width="18" height="16" viewBox="0 0 18 16" fill="none" xmlns="http://www.w3.org/2000/svg">
<path fill-rule="evenodd" clip-rule="evenodd" d="M12.226 12.0591C10.9427 12.9458 9.32993 13.4739 7.5787 13.4739C3.39308 13.4739 0 10.4577 0 6.73679C0 3.01593 3.39308 0 7.5787 0C11.7643 0 15.1578 3.01614 15.1578 6.73679C15.1578 8.29366 14.5637 9.72727 13.5661 10.8678L17.7225 14.5625C18.0925 14.8914 18.0925 15.4246 17.7225 15.7533C17.3526 16.0822 16.7528 16.0822 16.3828 15.7533L12.226 12.0591ZM6.63106 4.21066C6.63106 3.74555 7.05514 3.36857 7.57838 3.36857C9.67127 3.36857 11.368 4.87665 11.368 6.73704C11.368 7.20215 10.9437 7.57927 10.4205 7.57927C9.89726 7.57927 9.47317 7.20215 9.47317 6.73704C9.47317 5.80686 8.6248 5.05288 7.57838 5.05288C7.05514 5.05288 6.63106 4.67576 6.63106 4.21066Z" fill="#68686A" fill-opacity="0.84"/>
</svg>
